<?xml version="1.0" encoding="utf-8"?>
<!-- Generator: Adobe Illustrator 24.0.0, SVG Export Plug-In . SVG Version: 6.00 Build 0)  -->
<svg version="1.1" id="图层_1" width="128" height="128" xmlns="http://www.w3.org/2000/svg" xmlns:xlink="http://www.w3.org/1999/xlink" x="0px" y="0px"
	 viewBox="0 0 100 100" style="enable-background:new 0 0 100 100;" xml:space="preserve">
<style type="text/css">
	.st0{fill:#00000;}
</style>
<g>
	<g>
		<path class="st0" d="M21,32.5c20,0,40,0,60,0c3.86,0,3.87-6,0-6c-20,0-40,0-60,0C17.14,26.5,17.13,32.5,21,32.5L21,32.5z"/>
	</g>
</g>
<g>
	<g>
		<path class="st0" d="M66.88,21.62c4,3.33,8,6.67,12,10c2.95,2.46,7.21-1.77,4.24-4.24c-4-3.33-8-6.67-12-10
			C68.17,14.92,63.91,19.15,66.88,21.62L66.88,21.62z"/>
	</g>
</g>
<g>
	<g>
		<path class="st0" d="M71.12,41.62c4-3.33,8-6.67,12-10c2.97-2.47-1.29-6.7-4.24-4.24c-4,3.33-8,6.67-12,10
			C63.91,39.85,68.17,44.08,71.12,41.62L71.12,41.62z"/>
	</g>
</g>
<g>
	<g>
		<path class="st0" d="M81,64.5c-20,0-40,0-60,0c-3.86,0-3.87,6,0,6c20,0,40,0,60,0C84.86,70.5,84.87,64.5,81,64.5L81,64.5z"/>
	</g>
</g>
<g>
	<g>
		<path class="st0" d="M35.12,75.38c-4-3.33-8-6.67-12-10c-2.95-2.46-7.21,1.77-4.24,4.24c4,3.33,8,6.67,12,10
			C33.83,82.08,38.09,77.85,35.12,75.38L35.12,75.38z"/>
	</g>
</g>
<g>
	<g>
		<path class="st0" d="M30.88,55.38c-4,3.33-8,6.67-12,10c-2.97,2.47,1.29,6.7,4.24,4.24c4-3.33,8-6.67,12-10
			C38.09,57.15,33.83,52.92,30.88,55.38L30.88,55.38z"/>
	</g>
</g>
</svg>
