<?xml version="1.0" encoding="utf-8"?>
<!-- Generator: Adobe Illustrator 24.0.0, SVG Export Plug-In . SVG Version: 6.00 Build 0)  -->
<svg version="1.1" id="图层_1"  width="128" height="128" xmlns="http://www.w3.org/2000/svg" xmlns:xlink="http://www.w3.org/1999/xlink" x="0px" y="0px"
	 viewBox="0 0 100 100" style="enable-background:new 0 0 100 100;" xml:space="preserve">
<style type="text/css">
	.st0{fill:#00000;}
</style>
<g>
	<g>
		<path class="st0" d="M21,27.5c20,0,40,0,60,0c3.86,0,3.87-6,0-6c-20,0-40,0-60,0C17.14,21.5,17.13,27.5,21,27.5L21,27.5z"/>
	</g>
</g>
<g>
	<g>
		<path class="st0" d="M66.88,16.62c4,3.33,8,6.67,12,10c2.95,2.46,7.21-1.77,4.24-4.24c-4-3.33-8-6.67-12-10
			C68.17,9.92,63.91,14.15,66.88,16.62L66.88,16.62z"/>
	</g>
</g>
<g>
	<g>
		<path class="st0" d="M71.12,36.62c4-3.33,8-6.67,12-10c2.97-2.47-1.29-6.7-4.24-4.24c-4,3.33-8,6.67-12,10
			C63.91,34.85,68.17,39.08,71.12,36.62L71.12,36.62z"/>
	</g>
</g>
<g>
	<g>
		<path class="st0" d="M81,43.5c-20,0-40,0-60,0c-3.86,0-3.87,6,0,6c20,0,40,0,60,0C84.86,49.5,84.87,43.5,81,43.5L81,43.5z"/>
	</g>
</g>
<g>
	<g>
		<path class="st0" d="M35.12,54.38c-4-3.33-8-6.67-12-10c-2.95-2.46-7.21,1.77-4.24,4.24c4,3.33,8,6.67,12,10
			C33.83,61.08,38.09,56.85,35.12,54.38L35.12,54.38z"/>
	</g>
</g>
<g>
	<g>
		<path class="st0" d="M30.88,34.38c-4,3.33-8,6.67-12,10c-2.97,2.47,1.29,6.7,4.24,4.24c4-3.33,8-6.67,12-10
			C38.09,36.15,33.83,31.92,30.88,34.38L30.88,34.38z"/>
	</g>
</g>
<g>
	<g>
		<path class="st0" d="M19.5,76.5c10.17,0,20.33,0,30.5,0c3.86,0,3.87-6,0-6c-10.17,0-20.33,0-30.5,0
			C15.64,70.5,15.63,76.5,19.5,76.5L19.5,76.5z"/>
	</g>
</g>
<g>
	<g>
		<path class="st0" d="M42.88,65.62c4,3.33,8,6.67,12,10c2.95,2.46,7.21-1.77,4.24-4.24c-4-3.33-8-6.67-12-10
			C44.17,58.92,39.91,63.15,42.88,65.62L42.88,65.62z"/>
	</g>
</g>
<g>
	<g>
		<path class="st0" d="M47.12,85.62c4-3.33,8-6.67,12-10c2.97-2.47-1.29-6.7-4.24-4.24c-4,3.33-8,6.67-12,10
			C39.91,83.85,44.17,88.08,47.12,85.62L47.12,85.62z"/>
	</g>
</g>
</svg>
