<svg id="图层_1" data-name="图层 1" xmlns="http://www.w3.org/2000/svg" viewBox="0 0 191.93 31.97"><defs><style>.cls-1{fill:#e50017;fill-rule:evenodd;}.cls-2{font-size:14.79px;font-family:MicrosoftYaHei-Bold, Microsoft YaHei;font-weight:700;}.cls-2,.cls-3{fill:#fff;}.cls-3{font-size:13.41px;font-family:MicrosoftYaHei, Microsoft YaHei;}</style></defs><title>logo-gzfx</title><path class="cls-1" d="M38.9,15.24a5.07,5.07,0,0,0-.57-5.66c-2-1.67-4.11-2-6.16-1L29.72,11l-2.56-2.3c-1.64-1-3.54-.83-5.72.6-1.81,1.91-2.11,3.87-.89,5.93L23,13.57a1.89,1.89,0,0,1,.27-1.94c.42-.59,1.22-.71,2.41-.33l1.73,1.58-1.76,1.91,2.09,2.14,2-1.93,1.91,1.9L34,14.64l-1.93-1.7,1.4-1.64c1.1-.59,1.9-.59,2.41,0a1.7,1.7,0,0,1,.39,2.21l-6.64,7L23,13.57l-2.44,1.61,7,7.5-7.09,7.57c-1.13,1.76-.92,3.75.66,6,2.14,1.66,4.11,1.84,6,.53l2.56-2.29,2.42,2.23a4.77,4.77,0,0,0,6.16-.89L35.92,34.3a2.51,2.51,0,0,1-2.5-.18L32,32.48l1.93-1.7-2.35-2.26-1.93,1.91-2-1.94-2.12,2.15,1.79,1.9-1.76,1.58c-1.13.6-1.93.63-2.47.12a1.78,1.78,0,0,1-.21-2.38l6.65-6.94,6.73,6.88a1.8,1.8,0,0,1-.36,2.5l2.32,1.52c1.49-1.52,1.67-3.4.57-5.63l-7-7.42Z" transform="translate(-10.07 -7.56)"/><path class="cls-1" d="M39.88,20.54l-2.32-2.33-2.21,2.36,2.33,2.26L35.56,25l2,2.38L40,25l2.32-2.18,0-.06a2.54,2.54,0,0,1,2.3-1.52c1.13.12,1.7.66,1.73,1.52s-.51,1.37-1.73,1.61a3.19,3.19,0,0,1-2.27-1.55L40,25c1.64,1.75,3.13,2.62,4.44,2.59,2.68-.12,4.29-1.28,4.79-3.55A4.49,4.49,0,0,0,47.66,19a5.37,5.37,0,0,0-6.29,0Z" transform="translate(-10.07 -7.56)"/><path class="cls-1" d="M24.21,20.45,22,18.1l-2.32,2.32-1.49-1.58a5.37,5.37,0,0,0-6.29,0,4.51,4.51,0,0,0-1.58,5.06c.54,2.27,2.15,3.43,4.83,3.55L15,24.26c-1.22-.24-1.79-.77-1.73-1.61s.6-1.4,1.73-1.52A2.12,2.12,0,0,1,17,22.71l0,.09A2.6,2.6,0,0,1,15,24.26l.15,3.22c1.31,0,2.8-.84,4.47-2.59L22,27.27l2-2.38-2.12-2.18Z" transform="translate(-10.07 -7.56)"/><text class="cls-2" transform="translate(44.79 12.72)">山东联通</text><text class="cls-3" transform="translate(44.39 28.54)">HAM互联</text></svg>